<svg width="189" height="56" fill="none" xmlns="http://www.w3.org/2000/svg"><path fill-rule="evenodd" clip-rule="evenodd" d="M83.333 25.144l.061-.125a.752.752 0 01.145-.209c.062-.063.124-.146.186-.209.144-.187.31-.375.454-.563 1.032-.96 1.94-2.045 2.766-3.172.99-1.335 1.857-2.775 2.683-4.236.123-.188.247-.376.35-.584.166-.271.29-.585.434-.877 0-.02 0-.062-.02-.062-.021-.021-.104-.021-.125-.021-.103 0-.247.042-.371.062a1.59 1.59 0 01-.433.084h-2.518c-.186 0-.372-.021-.537-.021-.165 0-.351-.02-.516-.02h-.041c-.124-.063-.248-.126-.372-.168-.124-.041-.227-.104-.33-.146a1.16 1.16 0 01-.413-.23.573.573 0 01-.165-.396c0-.396.02-.772.062-1.168a4.15 4.15 0 01.206-.877c.165-.417.454-.751.929-.751.35 0 .722.02 1.073.042.29.02.578.062.867.125.186-.042.351-.084.537-.125h.041c.31 0 .62 0 .929.041.185.021.392.042.578.105.165-.042.33-.063.495-.105a5.22 5.22 0 01.557-.104h.02l.661.209c.62-.105 1.177-1.44 1.383-1.92.207-.5.475-1.064.846-1.46.248-.293.578-.522.95-.522.31 0 .619.104.825.333.227.272.29.626.29.981 0 .397-.145.877-.29 1.273a6.3 6.3 0 00-.206.668 3.28 3.28 0 00-.082.438c.02.042.061.084.082.125.062.063.124.146.186.188a.574.574 0 01.206.334c.041.167.062.334.062.5 0 .356 0 .731-.02 1.086-.021.271-.042.542-.083.814-.041.25-.145.73-.433.772l-1.28.271c-.02.146-.062.271-.083.417-.041.23-.103.46-.165.689a40.255 40.255 0 00-.763 2.567c-.33 1.21-.64 2.441-.93 3.672-.164.919-.33 1.837-.495 2.755l-.123.876a4.371 4.371 0 00-.042.522c0 .125.02.313.083.417.041.084.103.105.206.105a.975.975 0 00.248-.146c.186-.126.371-.272.557-.418.31-.23.599-.48.908-.73.392-.334.805-.668 1.197-1.023l.124-.104.867 2.087-.041.062a4.83 4.83 0 01-.578.543c-.268.23-.557.438-.867.647-.144.167-.33.334-.495.5a9.69 9.69 0 00-.66.648c-.228.27-.475.542-.703.813a13.06 13.06 0 01-.722.793c-.268.313-.598.605-.97.793-.289.146-.599.25-.908.25-.537 0-1.053-.145-1.403-.584-.372-.459-.455-1.126-.455-1.69 0-.688.021-1.377.083-2.066.041-.459.103-.98.268-1.419.041-.083.083-.167.104-.25 0-.188.04-.376.061-.543.042-.27.104-.542.145-.814.082-.521.165-1.064.268-1.585v-.042c.165-.334.31-.668.454-1.002 0-.02-.02-.02-.041-.041l-.124.062a7.42 7.42 0 01-.784 1.023 15.1 15.1 0 01-1.156 1.147c-.681.668-1.383 1.336-2.085 2.004a2.986 2.986 0 01-.227.313 9.357 9.357 0 00-.31.459v.02l-.04.042-.104.146-.02-.041c-.207.166-.392.334-.599.5-.227.188-.474.397-.702.585-.268.25-.557.48-.887.626a2 2 0 01-.846.188c-.33 0-.64-.084-.929-.21a1.908 1.908 0 01-.764-.646 1.817 1.817 0 01-.185-.23c-.083-.125-.166-.25-.227-.375-.186-.355-.372-.71-.558-1.085a6.004 6.004 0 01-.578-.689 32.004 32.004 0 00-.763-1.002l-.103-.041a4.333 4.333 0 00-.702.334 5.568 5.568 0 00-.764.626c-.248.23-.516.459-.784.667-.165.126-.351.272-.537.376-.186.084-.392.23-.495.417a3.601 3.601 0 01-.392.585c-.186.25-.392.48-.578.71a71.705 71.705 0 01-1.713 1.835l-.516.522c-.165.167-.351.334-.516.501a1.456 1.456 0 01-.64.334 3.203 3.203 0 01-.764.104c-.454 0-.928-.146-.99-.668-.042-.375-.104-.75-.145-1.126v-.042c.248-.71.475-1.42.681-2.129.29-.98.578-1.982.867-2.984 0-.104.041-.208.083-.292.062-.146.103-.292.165-.459.062-.146.103-.292.144-.438.02-.104.041-.209.041-.313a.19.19 0 00-.061-.146.545.545 0 00-.248-.063c-.145 0-.351.125-.454.23a2.381 2.381 0 00-.351.292c-.144.146-.289.292-.413.459-.289.313-.598.647-.908.96-.103.104-.186.188-.289.271-.062.042-.124.104-.186.146-.165.105-.31.25-.454.376-.185.188-.392.396-.598.584-.041.084-.083.146-.124.23-.062.125-.165.23-.248.334l-.041.041-.103.126v-.021c-.269.25-.537.521-.805.793-.31.313-.62.605-.97.876a5.432 5.432 0 01-1.197.73 2.84 2.84 0 01-1.177.25c-.784 0-1.548-.187-2.084-.792-.578-.626-.785-1.523-.847-2.358 0-.125-.02-.23-.04-.355a.709.709 0 00-.125-.25l-.123.125c-.104.083-.186.188-.269.292-.227.167-.433.334-.66.522-.31.23-.599.48-.908.73-.393.397-.785.814-1.177 1.19-.144.125-.268.27-.413.396-.082.083-.185.167-.268.271-.289.25-.62.48-.95.689-.392.25-.804.48-1.196.71-.248.125-.496.25-.743.354-.124.063-.33.146-.475.146-.537 0-1.115-.104-1.507-.521-.392-.418-.495-1.023-.495-1.566 0-.375.082-.75.248-1.106a3.56 3.56 0 01.701-.98v-.063c-.103.125-.206.271-.33.397-.33.417-.64.876-.95 1.314-.454.584-.866 1.19-1.279 1.795.02.125.103.271.165.355.145.208.31.396.475.584.413.48.702 1.043.908 1.628.289.772.454 1.585.578 2.4v.041c-.02.104-.042.209-.042.313-.02.167-.04.334-.04.5-.207 1.92-1.528 3.527-2.89 4.759-1.362 1.23-3.096 2.358-4.995 2.358-.557 0-1.218-.063-1.754-.293-.413-.187-.743-.459-.95-.876a3.069 3.069 0 01-.103-.417 3.432 3.432 0 01-.062-.647c-.02-.292-.041-.605-.041-.898-.02-.375-.02-.772-.02-1.147 0-.063.02-.146.02-.209.02-.104.062-.209.082-.313.104-.334.248-.668.372-.98.103-.293.248-.585.413-.856.186-.313.35-.626.536-.94.186-.27.392-.563.578-.834l.557-.814c.372-.417.764-.834 1.156-1.273a4.69 4.69 0 00.578-.71c.083-.145.186-.333.186-.52a57.646 57.646 0 00-1.342-1.796c-.454-.584-.866-1.189-1.197-1.857-.289-.605-.516-1.23-.598-1.899 0-.062-.041-.146-.083-.23l-.743.752-.041.042v.02l-.124.126c-.31.313-.64.626-.99.897-.31.271-.64.522-.991.73-.516.334-1.115.585-1.755.606-.227.146-.474.23-.743.292-.33.083-.66.083-.99.083-.454 0-.93-.062-1.362-.23a2.582 2.582 0 01-1.012-.688 2.978 2.978 0 01-.413-.626c-.165-.313-.289-.647-.433-.96-.083-.209-.186-.459-.33-.626-.062-.083-.145-.167-.269-.167a.331.331 0 00-.268.125l-.392.397-.062.042-.103.104c-.31.292-.62.563-.929.856-.35.333-.702.646-1.073.96-.392.333-.826.625-1.3.813a3.115 3.115 0 01-1.3.292c-.145 0-.269 0-.413-.02l-.578-.063-.578-.063c-.145-.02-.269-.02-.413-.02-.805 0-1.445-.334-1.94-.96-.599-.752-.888-1.858-1.053-2.797a1.217 1.217 0 00-.103-.292c-.041-.083-.103-.146-.145-.208l-.536.542c-.268.292-.557.564-.846.835l-.021.02-.124.126c-.103.125-.206.208-.33.313a7.755 7.755 0 01-.743.5h-.041a15.2 15.2 0 00-1.012.397c-.454.209-.908.397-1.341.605-.165.105-.351.209-.537.313a4.323 4.323 0 01-.433.23c-.145.063-.413.209-.557.209-.104 0-.248.02-.351.062a6.018 6.018 0 00-.578.167 46.68 46.68 0 00-1.817.668 30.66 30.66 0 01-1.28.459c-.453.146-.928.292-1.403.417H6.7l-1.239-.271-.763.334h-.021c-.268 0-.516 0-.784-.021-.248 0-.516-.02-.764-.042-.289-.02-.66-.041-.908-.167-.206-.104-.35-.27-.35-.521l.123-.73-.145-.084c-.288 0-.701-.042-.928-.209-.248-.188-.269-.647-.269-.939 0-.334.021-.688.021-1.022.02-.605.062-1.232.103-1.837 0-.125.083-.354.145-.459a2.22 2.22 0 00.124-.396c-.042-.105-.104-.23-.124-.334C.9 24.914.9 24.831.9 24.748c.041-.647.103-1.315.165-1.962.103-.918.207-1.836.33-2.734.186-.71.31-1.419.393-2.128-.021-.605-.062-1.21-.083-1.816v-.041a652.042 652.042 0 011.527-6.782c.083-.418.248-.835.475-1.19.227-.375.516-.751.805-1.064.062-.042.103-.083.165-.125.02-.021.062-.042.083-.063.082-.146.165-.313.268-.459.124-.209.248-.417.392-.626l.02-.02.021-.022c.124-.083.269-.167.392-.25.248-.146.475-.292.723-.438.144-.125.31-.25.454-.376.206-.167.392-.355.598-.522.496-.292.97-.626 1.404-.98.495-.439 1.073-.647 1.692-.71l.93-.062.866-.063c.227-.042.475-.083.702-.104.103-.021.227-.042.33-.084.103-.02.206-.042.31-.042.123 0 .227.021.35.021.186.021.372.063.558.105.165.02.31.02.474.02.124 0 .248 0 .372-.02h.041c.475.146.95.354 1.26.75.267.335.412.752.412 1.19 0 .418-.02.835-.062 1.232a4.688 4.688 0 01-.206.897c-.165.438-.475.751-.95.751-.392 0-.784-.25-1.073-.48-.516-.417-2.312-.438-2.951-.438-.66.125-1.321.271-1.982.396a.883.883 0 01-.247.23l-.248.125-.041.021-.702-.271c-.248.125-.496.417-.64.626a6.86 6.86 0 00-.413.647c-.144.27-.289.563-.433.855a1.295 1.295 0 00-.145.48c-.041.23-.041.46-.041.689v.041c-.227.94-.475 1.879-.722 2.818-.104.438-.207.855-.31 1.293l-.248.94c-.062.208-.103.396-.165.604-.02.105-.062.21-.082.314-.042.125-.062.25-.083.375-.02.105-.041.23-.041.334 0 .104.02.25.082.355.042.062.124.083.207.083.062 0 .206-.125.248-.146.185-.146.371-.313.557-.48.247-.25.743-.688 1.094-.793.289-.083.578-.167.846-.271.31-.104.598-.209.887-.334.104-.042.227-.042.351-.063.207-.041.413-.062.64-.083.31-.042.62-.083.929-.104l1.238-.126h.02l.558.167 1.073-.208.62.292.02.02c.145.147.29.335.392.522.124.21.227.439.33.647v.042c0 .605-.04 1.336-.268 1.899-.165.396-.433.689-.887.689h-.02l-1.095-.439c-.887.105-1.795.188-2.683.272l-2.724.25c-.888.188-1.837.5-2.539 1.085-.598.501-.908 1.169-.97 1.962 0 .104-.02.23-.041.334-.02.167-.062.313-.103.48-.083.438-.186.897-.269 1.335l.145.605v.021a22.426 22.426 0 00-.29 1.628c-.061.459-.102.918-.102 1.356 0 .063 0 .167.04.23h.021l1.548-.125c.166-.021.33-.021.496-.021h.33c.35.02.702.062 1.053.083l1.259-.104a1.19 1.19 0 00.289-.105c.185-.062.371-.146.557-.23.392-.166.825-.291 1.259-.291.392 0 .764-.042 1.156-.125a8.691 8.691 0 001.114-.314c.351-.146.723-.27 1.073-.417.351-.146.723-.292 1.074-.417a5.67 5.67 0 00.516-.23c.062-.02.103-.062.144-.083.062-.042.145-.105.207-.146a3.01 3.01 0 01.268-.188c.124-.146.247-.313.33-.46.145-.229.31-.458.495-.646l1.342-1.19c.02-.02.041-.041.041-.083v-.271c0-.125-.02-.271-.041-.397v-.042c0-.208.02-.438.041-.646.041-.313.083-.626.145-.94a13.1 13.1 0 01.165-.876c.02-.125.082-.292.144-.438l-.124-.355v-.02c.186-1.002.454-2.004.743-2.985.351-1.168.702-2.337 1.074-3.505v-.042c.165-.25.289-.543.413-.814l.495-1.127a17.07 17.07 0 01.908-2.212c.392-.814.805-1.607 1.259-2.379.289-.48.578-.96.887-1.419.248-.354.516-.71.785-1.022.35-.376.846-.856 1.403-.856.537 0 1.28.063 1.672.501.413.438.454 1.231.454 1.795 0 .146-.02.292-.02.417a6.234 6.234 0 01-.083.605c-.041.188-.062.397-.083.585-.02.146-.02.27-.02.417 0 .313-.124.71-.227 1.002-.124.354-.207.73-.207 1.126a.902.902 0 01-.103.334l.02.272v.02c-.061.23-.164.48-.247.71a8.012 8.012 0 01-.433.96 19.23 19.23 0 01-.351 1.168c-.165.501-.351.981-.516 1.461v.02l-.31.502a6.702 6.702 0 00-.392.647 2.982 2.982 0 01-.206.605c-.104.271-.248.563-.372.814-.103.187-.206.375-.33.542-.165.25-.33.48-.475.73a2.259 2.259 0 00-.248.501c-.103.23-.206.46-.33.689-.185.292-.392.584-.578.856-.268.396-.557.793-.805 1.189-.392.71-.825 1.419-1.259 2.108 0 .96.145 2.086.743 2.88.558.709 1.363.96 2.23.96a.48.48 0 00.165-.043c.123-.041.268-.062.392-.104.206-.063.392-.104.598-.167.269-.083.516-.167.764-.271.103-.042.186-.104.268-.167.104-.083.227-.188.33-.271l.764-.689c.186-.313.392-.584.64-.856.289-.313.62-.605.95-.876l.123-.751c.041-.271.062-.522.083-.793.041-.23.124-.46.186-.689.103-.271.185-.563.288-.834l.496-1.127c.248-.522.516-1.023.825-1.524.31-.333.599-.667.867-1.022l.929-1.127c.145-.125.33-.25.495-.355.166-.104.351-.23.516-.354l.021-.021h.02c.186-.063.372-.105.558-.146.227-.042.454-.063.681-.063.268 0 .578.02.846.104.227.063.413.188.557.376.124.146.207.334.29.522.103.25.185.542.268.814.041.27.082.542.124.834 0 .021.02.042.02.063l.02.125-.04-.02h-.042v.02c-.082.23-.144.48-.206.71l-.186.646c-.248.814-.764 1.628-1.28 2.296a25 25 0 01-1.155 1.377c-.475.543-.991 1.043-1.507 1.565a2.933 2.933 0 00-.227.313.943.943 0 00-.083.417c0 .25.042.48.145.71a.895.895 0 00.392.438c.145.105.33.167.495.23.269.083.537.146.805.208a7.38 7.38 0 001.383-.25 6.879 6.879 0 001.135-.48c.042-.02.103-.042.145-.063.062-.02.103-.062.165-.104l.392-.292c.124-.125.227-.292.33-.438.165-.23.33-.46.516-.689.207-.167.413-.375.599-.584.268-.271.516-.605.743-.918.124-.25.247-.522.392-.752.165-.313.35-.647.516-.96.103-.438.33-.897.578-1.272.35-.564.805-1.085 1.238-1.586.785-.877 1.548-1.753 2.312-2.63.371-.542.825-1.064 1.383-1.419a3.085 3.085 0 011.65-.459c.414 0 .744.188.95.564.248.438.31 1.064.31 1.565 0 .375-.33.897-.516 1.19-.186.312-.413.604-.62.876-.288.375-.577.73-.887 1.085-.413.521-.867 1.022-1.3 1.502a90.715 90.715 0 00-1.342 1.503c-.206.208-.412.396-.619.605-.227.23-.475.48-.702.73-.082.313-.165.605-.247.918 0 .439.02.898.103 1.336.062.313.144.647.289.939.062.063.103.146.165.23.083.145.186.27.268.417.29.438.599.855.888 1.294.103.146.206.27.33.396.124.125.268.25.392.355.124-.063.268-.209.351-.292.248-.23.495-.501.722-.752a71.155 71.155 0 002.291-2.692l.042-.041.103-.125c.041-.063.082-.126.124-.167.123-.188.227-.376.35-.564l.021-.02 1.837-1.21c.083-.084.145-.168.227-.272.062-.063.103-.125.145-.188.061-.084.123-.188.165-.271a1.48 1.48 0 01.392-.48c.165-.125.35-.23.537-.334a9.984 9.984 0 011.217-1.21h.02c.187-.105.372-.23.558-.355.268-.167.495-.397.723-.605a60.486 60.486 0 011.713-1.544c.474-.397.97-.773 1.506-1.107.681-.417 1.569-.897 2.374-.897.289 0 .619.042.846.25.206.188.289.439.289.71 0 .271-.041.543-.165.793a1.41 1.41 0 01-.516.584c-.351.272-.723.543-1.073.814-.248.313-.516.605-.785.898a7.55 7.55 0 01-1.073.939c-.103.146-.227.292-.33.459v.02h-.02c-.125.126-.248.25-.372.355a9.767 9.767 0 01-.723.605 2.102 2.102 0 01-.33.501c-.165.23-.371.438-.557.647-.558.605-1.177 1.169-1.796 1.711a2.22 2.22 0 00-.186.23c-.103.125-.206.271-.31.417-.309.417-.598.856-.887 1.273l.042.042c.289-.105.578-.272.825-.439.372-.27.723-.584 1.053-.897.371-.355.743-.688 1.114-1.022.124-.105.248-.23.372-.334.082-.063.165-.146.248-.209.082-.062.185-.104.268-.167l.31-.188c.288-.334.577-.667.887-.96.268-.25.536-.48.846-.688.454-.313.99-.564 1.548-.564a.82.82 0 01.722.376c.207.292.269.71.29 1.064-.021.647-.042 1.294-.042 1.941-.02.396.103.772.33 1.106.227.313.496.48.867.48a.47.47 0 00.29-.084c.123-.062.226-.146.33-.25.082-.104.165-.23.268-.355.082-.104.185-.208.268-.334l.495-.396c.062-.104.145-.209.207-.313.103-.125.206-.271.31-.417v-.021h.02c.083-.063.144-.126.227-.188.103-.084.186-.188.289-.271.248-.23.475-.46.722-.71.29-.334.599-.668.888-1.002.413-.48.846-.96 1.259-1.44l.805-.876c.392-.417.763-.855 1.135-1.294.35-.417.764-.772 1.238-1.022a3.1 3.1 0 011.424-.334c.454 0 .867.125 1.156.5.29.397.372.919.372 1.399 0 .104 0 .209-.02.292-.022.125-.042.271-.063.397-.062.375-.165.75-.248 1.106-.123.521-.288 1.022-.433 1.544-.206.647-.413 1.314-.62 1.961-.123.25-.226.501-.35.772a3.733 3.733 0 00-.165.439c-.02.083-.041.187-.041.292a.4.4 0 00.04.146c.021-.021.063-.042.083-.084.062-.083.124-.146.207-.23.124-.25.31-.458.495-.667.248-.25.516-.5.784-.73.124-.25.29-.48.475-.689.207-.23.413-.438.66-.626a1.12 1.12 0 00.186-.25c.104-.146.207-.272.31-.397.206-.209.413-.376.64-.563.268-.209.557-.418.846-.605.31-.167.64-.334.99-.46.248-.083.517-.166.785-.166.413 0 .805.104 1.156.313.371.23.66.605.867 1.001.247.772.495 1.565.763 2.337.103.293.248.668.475.898.144.167.31.27.537.27.144 0 .289-.02.412-.082.186-.021.29-.126.393-.23zM25.707 9.368c-.598.584-1.176 1.252-1.61 1.983-.33.563-.557 1.168-.557 1.836 0 .063-.02.146-.04.209a1.257 1.257 0 01-.104.292c-.124.292-.248.584-.392.876a27.75 27.75 0 00-.66 1.377c-.207.606-.414 1.21-.579 1.837a5.1 5.1 0 00-.144.605 1.86 1.86 0 00-.041.355l.062.062c.123-.062.247-.23.31-.313.226-.313.412-.647.598-1.001a4.93 4.93 0 01.474-.856c.227-.376.454-.772.681-1.148a3.558 3.558 0 00.413-.772c.227-.48.413-.98.599-1.481.186-.501.371-1.002.537-1.503.061-.167.103-.334.144-.5.02-.105.062-.21.062-.314.02-.27.062-.542.103-.814.041-.292.103-.5.145-.73zm6.481 12.25c.02.02.103.02.124.02.124 0 .207-.062.268-.188.083-.146.186-.292.269-.438v-.02l.02-.022.434-.438c.144-.146.268-.313.413-.459a1.88 1.88 0 00.35-.542c.062-.167.124-.334.124-.522 0-.084 0-.167-.041-.23-.02-.041-.062-.062-.124-.062-.371 0-.929.855-1.094 1.127-.247.396-.722 1.189-.722 1.669-.02.042-.02.083-.02.104zm12.116 12.27a.893.893 0 00-.145.125 3.05 3.05 0 00-.33.396c-.165.23-.351.46-.516.689a16.24 16.24 0 00-.66.98c-.29.46-.578.898-.847 1.357-.289.459-.578.918-.887 1.356-.083.105-.145.25-.186.355a8.99 8.99 0 00-.268.668c-.083.23-.166.438-.227.667-.021.063-.042.146-.062.21 0 .04-.02.083-.02.124 0 .167.04.376.164.48.145.125.392.146.578.167 1.218 0 2.291-.814 3.096-1.67.805-.834 1.59-1.96 1.59-3.171 0-.25-.042-.5-.104-.73a8.613 8.613 0 00-.31-.96c-.123-.271-.288-.605-.474-.835-.083-.083-.207-.209-.392-.209zm132.884-7.555c.186-.292.413-.563.66-.814.289-.313.64-.584.991-.834.041-.25.103-.501.145-.752.041-.271.082-.521.103-.793.062-.23.144-.459.227-.668.103-.27.206-.542.33-.813.165-.376.351-.73.537-1.106.268-.501.557-1.002.887-1.482.31-.313.619-.647.908-.98.331-.355.64-.731.97-1.086a4.45 4.45 0 01.516-.334 4.22 4.22 0 00.516-.334l.021-.02h.021c.185-.063.371-.084.557-.125.227-.042.454-.042.681-.042.268.02.578.042.846.146.227.083.413.209.557.396.124.146.207.355.269.543.103.271.165.542.227.814.02.27.062.563.082.834v.063l.021.125-.041-.02h-.042v.02c-.082.23-.165.46-.247.71l-.207.646c-.268.814-.825 1.587-1.382 2.233-.393.46-.805.898-1.218 1.336a34.706 34.706 0 01-1.569 1.482 1.752 1.752 0 00-.227.313.942.942 0 00-.103.396c0 .25.021.48.103.71.083.187.207.354.372.459.144.104.33.187.474.25.269.104.537.188.805.25.475-.02.95-.083 1.404-.208.392-.105.784-.25 1.156-.439.103-.062.227-.125.33-.166a1.53 1.53 0 00.433-.272l.124-.083.062.146c.144.355.289.71.413 1.085.103.271.206.543.289.835l.02.062-.062.042c-.371.334-.743.668-1.135.96-.33.25-.681.48-1.032.688-.536.314-1.155.543-1.775.522a3.019 3.019 0 01-.763.271 4.114 4.114 0 01-1.012.042c-.454-.02-.928-.104-1.341-.292a2.775 2.775 0 01-.97-.73 2.57 2.57 0 01-.392-.647c-.145-.313-.269-.647-.393-.981a2.06 2.06 0 00-.309-.647.365.365 0 00-.268-.188.487.487 0 00-.289.105l-.413.375v.021l-.062.042-.124.104v-.02c-.082.062-.165.145-.248.208-.185.167-.371.334-.557.48a1.548 1.548 0 01-.289.23c-.144.104-.309.187-.454.27-.206.105-.413.189-.619.293-.248.104-.516.209-.784.313-.207.104-.413.188-.62.292-.206.104-.412.209-.619.292a4.215 4.215 0 01-.722.25 2.537 2.537 0 01-.681.084c-.33-.02-.681-.042-.97-.146-.207-.063-.434-.146-.599-.292l-1.961-2.15-.082-.041-.041.02c-.165.147-.331.272-.516.418-.227.188-.454.396-.681.605-.145.146-.269.292-.413.438-.165.146-.31.313-.475.48l-.021.021h-.02c-.269.105-.516.23-.764.334-.351.167-.722.334-1.073.5l-.021.022h-.206a.574.574 0 01-.372-.125.555.555 0 01-.144-.397c.021-.25.371-.647.537-.814.206-.208.412-.396.619-.605l.867-.751c.288-.25.577-.48.866-.751.207-.188.413-.397.62-.605.123-.147.454-.501.474-.71a10.275 10.275 0 00-.433-1.106 14.634 14.634 0 00-.681-1.231l-.145.042c-.103.104-.185.187-.289.27-.144.147-.309.272-.454.418a14.04 14.04 0 01-.805.793c-.392.355-.805.71-1.197 1.044h-.041c-.206.104-.392.187-.557.313l-.702.48-.083.041-.103.084v-.021c-.33.188-.681.375-1.011.542-.289.146-.599.313-.908.439-.33.146-.846.354-1.218.333-.619-.02-1.218-.208-1.692-.625-.475-.439-.764-1.044-.909-1.67a1.675 1.675 0 00-.144-.459 3.574 3.574 0 00-.227-.376c-.103.126-.227.25-.33.376a6.33 6.33 0 01-.516.543c-.372.417-.764.834-1.135 1.272-.372.418-.764.814-1.156 1.232-.413.459-.929.897-1.486 1.168-.434.209-.908.355-1.404.334-.578-.02-1.135-.209-1.527-.668-.433-.459-.619-1.127-.681-1.752-.041-.314-.083-.627-.103-.94l-.062-.709c0-.167-.021-.313-.021-.48 0-.083 0-.188.021-.25 0-.167-.021-.334-.021-.501 0-.125-.021-.25-.041-.355 0-.042-.041-.188-.083-.209l-.062.042-1.155 1.106a1.3 1.3 0 01-.227.355l-.372.438v.02l-.062.043-.124.146-.02-.042c-.331.271-.64.543-.97.814-.372.313-.723.626-1.115.918a5.625 5.625 0 01-1.321.772c-.433.167-.867.25-1.321.23-.144 0-.268-.021-.413-.042-.185-.021-.392-.042-.577-.084-.186-.02-.372-.062-.578-.083-.145-.02-.269-.042-.413-.042-.805-.042-1.424-.396-1.899-1.043-.578-.793-.826-1.878-.929-2.838a1.19 1.19 0 00-.082-.292 1.455 1.455 0 00-.145-.23c-.186.167-.371.355-.557.522-.268.25-.537.5-.826.751l-.062.042c-.371.334-.743.668-1.135.96-.33.25-.681.48-1.032.688-.536.313-1.155.543-1.775.522a3.019 3.019 0 01-.763.271 4.114 4.114 0 01-1.012.042c-.454-.02-.928-.104-1.341-.292a2.774 2.774 0 01-.97-.73 2.569 2.569 0 01-.392-.647 13.67 13.67 0 01-.393-.981 2.057 2.057 0 00-.309-.647.365.365 0 00-.268-.188.487.487 0 00-.289.105l-.475.438-.021.02c-.062.063-.144.126-.206.188-.248.23-.495.376-.805.522-.516.23-1.053.397-1.589.543-.186.041-.392.083-.578.125-.248.063-.496.125-.764.188l-1.403.062a58.03 58.03 0 00-1.899.146c-.495.355-.991.71-1.507 1.044a12.54 12.54 0 01-1.341.793 8.353 8.353 0 01-1.156.542c-.289.125-.619.23-.929.292l-.31.25h-.02c-.537.21-1.135.335-1.693.439-.763.125-1.548.188-2.332.25h-.041a1.097 1.097 0 01-.516-.354 5.718 5.718 0 01-.557-.689l-.062-.083.062-.063c.185-.188.35-.376.516-.564a8.5 8.5 0 00.681-.813c.206-.292.474-.522.763-.71a2.692 2.692 0 011.115-.355c.495-.083.97-.208 1.445-.333.165-.105.33-.21.495-.313.227-.126.454-.25.66-.376.351-.146.661-.355.97-.584a15.85 15.85 0 001.136-.94c.454-.396.887-.813 1.341-1.21.145-.125.269-.25.413-.375.062-.063.144-.126.186-.188.124-.167.227-.355.371-.5.145-.168.289-.293.454-.418.248-.397.496-.793.743-1.169.351-.563.702-1.127 1.074-1.67v-.02c.082-.084.185-.188.247-.271a6.87 6.87 0 01.372-.397c.33-.355.516-.876.619-1.335.165-.73.248-1.524.268-2.296a4.384 4.384 0 00-.392-1.92c-.33-.793-.825-1.523-1.362-2.19a11.977 11.977 0 00-1.672-1.733 10.82 10.82 0 00-1.795-1.273c-.455-.25-.888-.521-1.342-.772-.33-.208-.681-.417-1.011-.605a124.73 124.73 0 00-.785 2.63 146.708 146.708 0 00-1.155 4.298 93.227 93.227 0 00-.64 2.588c-.165.668-.31 1.356-.454 2.024-.104.48-.207.98-.289 1.46-.021.168-.062.335-.083.522-.021.125-.02.25-.041.376v.042c-.103.334-.165.667-.248 1.001l-.97 3.986v.02c-.227.397-.454.794-.702 1.19a7.587 7.587 0 01-.598.835c-.186.23-.578.689-.908.689-.186 0-.289-.167-.351-.313-.041-.105-.083-.21-.124-.334a3.605 3.605 0 01-.103-.46v-.02l.289-1.127a1.942 1.942 0 01-.103-.334v-.042c.123-.876.227-1.774.33-2.67.103-.898.206-1.795.33-2.672.103-.939.248-1.878.413-2.817.165-.814.33-1.607.536-2.4l-.206-1.043.021-.042c.124-.292.206-.626.289-.918a9.29 9.29 0 00.227-1.273c.062-.5.124-1.001.206-1.523.021-.167.062-.334.083-.5.02-.105.062-.23.103-.335.062-.209.144-.417.186-.647.082-.313.165-.647.247-.96.042-.125.165-.27.248-.354.165-.188.351-.355.537-.522a6.7 6.7 0 00.536-.543 2.76 2.76 0 00.31-.375l.02-.042h.062c.186-.02.413-.042.599-.125.082-.042.144-.104.144-.188 0-.063-.123-.125-.165-.146a3.235 3.235 0 00-.64-.188c-.185 0-.35-.042-.516-.062a2.915 2.915 0 01-.598-.21l-1.61-.876c-.268-.146-.578-.313-.805-.542-.165-.167-.289-.355-.289-.605v-.042c.083-.25.165-.522.227-.772-.062-.209-.124-.438-.206-.647a1.763 1.763 0 01-.083-.459.57.57 0 01.124-.355c.083-.104.206-.125.351-.125.309.063.64.146.949.23.124-.042.248-.063.372-.105.144-.042.268-.083.413-.125h.041c.289.02.598.042.887.104.186.042.413.105.599.188.186.104.392.209.578.334.165.104.351.188.536.292l.62-.062a.7.7 0 01.268.062h.021c.165.125.35.23.557.313.248.105.495.188.763.25.269.063.558.126.826.21.186.062.392.124.557.229a66.26 66.26 0 013.653 2.253 18.841 18.841 0 012.58 2.045c.97.919 1.796 2.004 2.333 3.235.474 1.127.701 2.295.639 3.506-.082 2.149-.866 4.173-1.94 6.01a24.369 24.369 0 01-2.229 3.192 40.859 40.859 0 01-2.703 2.984c.103-.02.206-.062.309-.083.351-.105.723-.209 1.073-.313.867-.167 1.755-.334 2.622-.501.474-.125.97-.271 1.424-.48a1.79 1.79 0 00.536-.334c.104-.083.186-.167.269-.25a6.49 6.49 0 01.681-.835c.289-.313.64-.584.99-.835.042-.25.104-.5.145-.75.041-.272.082-.523.103-.794.062-.23.145-.459.227-.668a13.9 13.9 0 01.33-.814c.165-.375.351-.73.537-1.105.268-.501.557-1.002.887-1.482.31-.313.62-.647.909-.98.33-.356.639-.731.97-1.086.165-.125.33-.23.516-.334.185-.104.351-.208.516-.334l.02-.02h.021c.186-.063.371-.084.557-.126.227-.042.454-.042.681-.042.269.021.578.042.846.147.228.083.413.208.558.396.124.146.206.355.268.543.103.27.165.542.227.814.021.27.062.563.083.834v.063l.02.125-.041-.02h-.041v.02c-.083.23-.165.459-.248.71l-.206.646c-.269.814-.826 1.586-1.383 2.233-.392.46-.805.897-1.218 1.336a35.224 35.224 0 01-1.568 1.481 1.713 1.713 0 00-.228.313.957.957 0 00-.103.397c0 .25.021.48.103.71.083.187.207.354.372.458.144.105.33.188.475.25.268.105.536.189.805.251a6.242 6.242 0 002.559-.647c.103-.062.227-.125.33-.167.124-.041.227-.125.33-.188v-.02l.062-.063c.145-.146.269-.292.372-.46.165-.229.33-.437.516-.625l1.403-1.127c.021-.02.042-.042.042-.063.02-.083.02-.187.02-.27 0-.126 0-.272-.041-.397v-.042c0-.209.041-.417.062-.626.041-.313.103-.626.165-.94.062-.291.124-.583.206-.875.042-.126.083-.293.165-.418l-.103-.375v-.021c.227-1.002.537-1.983.867-2.943a226.86 226.86 0 011.218-3.464v-.041c.165-.25.309-.522.454-.793.186-.376.351-.73.537-1.106.268-.752.619-1.482.99-2.191a54.13 54.13 0 011.362-2.338c.31-.459.62-.939.95-1.377.268-.334.536-.688.825-.98.351-.376.888-.814 1.424-.793.537.02 1.28.125 1.652.563.392.438.412 1.252.392 1.815 0 .146-.021.293-.041.418a4.827 4.827 0 01-.104.584 5.96 5.96 0 00-.103.584c-.021.146-.041.272-.041.418-.021.313-.145.71-.268 1.001-.145.355-.248.73-.269 1.106a.915.915 0 01-.124.334v.292c-.082.23-.165.46-.268.689-.144.313-.31.626-.454.939-.124.396-.268.772-.413 1.168-.186.48-.371.96-.578 1.44v.021c-.103.167-.227.313-.33.48l-.433.626a5.347 5.347 0 01-.227.605c-.124.272-.269.543-.413.814-.103.188-.227.355-.351.522-.165.23-.351.459-.516.71a3.535 3.535 0 00-.268.48c-.124.229-.227.458-.351.667-.186.292-.413.564-.619.835-.289.375-.578.772-.867 1.148a70.894 70.894 0 01-1.342 2.045c-.041.96.062 2.086.619 2.9.516.73 1.321 1.023 2.188 1.064.041 0 .124-.02.165-.02.124-.021.269-.063.392-.084.207-.042.393-.104.599-.146.268-.084.516-.146.784-.23a4.02 4.02 0 00.619-.417l.764-.626.083-.042a.253.253 0 00.103-.104c.02-.042.041-.084.041-.146v-.063l.041-.041a5.28 5.28 0 00.785-.73c.351-.356.701-.731 1.032-1.107.309-.396.639-.793.97-1.19.351-.396.701-.792 1.073-1.168.31-.396.619-.814.908-1.231.31-.438.64-.856.97-1.252l.021-.02.02-.022c.248-.104.475-.209.723-.313.186-.062.371-.146.536-.209.124-.041.248-.083.393-.104.082-.02.185-.042.268-.042.206 0 .413.084.537.25.144.189.165.418.165.627 0 .125-.042.25-.083.375-.062.167-.103.334-.165.48-.103.272-.227.543-.351.814-.124.48-.268.94-.433 1.398-.165.46-.331.919-.475 1.378a19.81 19.81 0 00-.372 1.585 9.682 9.682 0 00-.165 1.315c-.02.334-.02.647-.02.981 0 .23.02.459.062.689.02.104.041.23.082.334 0 .02.041.083.062.083.165-.084.33-.167.495-.271.227-.126.475-.25.702-.355.289-.292.578-.584.826-.897.371-.439.763-.856 1.135-1.294.268-.355.516-.73.784-1.085.124-.126.227-.25.351-.376a3.37 3.37 0 00.351-.417c.227-.501.537-1.065.929-1.44.247-.23.516-.397.846-.438.103-.021.206-.021.31-.021.288.02.598.062.866.167.207.104.372.25.475.48.062.146.083.375.083.521.02.313.02.626 0 .94 0 .083 0 .166.02.25.021.125.021.25.042.375l.061.376c.021.084.021.188.021.271-.021.334 0 .772.186 1.065.165.25.413.354.702.354.103 0 .227-.02.33-.041.144-.042.289-.084.413-.126.412-.23.805-.459 1.217-.688.392-.23.785-.438 1.177-.689.33-.188.64-.375.949-.584.227-.146.475-.313.681-.501.124-.104.516-.438.516-.605 0-.146-.041-.334-.062-.48-.062-.25-.165-.5-.247-.73-.145-.376-.351-.94-.331-1.357a3.2 3.2 0 01.31-1.252c.206-.417.516-.751.888-1.022.165-.146.33-.272.515-.397.124-.062.269-.125.413-.125.31.02.537.188.681.438.186.334.289.751.331 1.127.041.23.082.48.123.71.042.166.083.354.145.521.041.104.124.355.227.438.144-.062.289-.125.433-.208.166-.105.331-.188.496-.271.309-.334.66-.647.99-.94.516-.438 1.053-.876 1.59-1.314.309-.271.639-.522.97-.772.247-.188.516-.376.784-.564.186-.125.392-.25.599-.355.123-.062.268-.146.412-.166h.042c.103 0 .206.02.33.02h.413c.227-.02.433.084.598.25.207.21.351.523.454.794.103.271.207.542.269.814.061.23.082.459.082.688-.021.418-.062.877-.186 1.294-.082.292-.206.605-.433.814a7.095 7.095 0 01-.681.876c-.351.397-.702.793-1.073 1.19l-1.672 1.565-1.197 1.148c-.227.23-.475.459-.681.709-.062.063-.124.146-.186.209-.021.02-.041.062-.062.083 0 .376.351.793.578 1.043.268.272.66.627 1.073.647a23.83 23.83 0 001.713-.187c.372-.21.723-.439 1.073-.689l1.569-.793zm-5.201-6.093c-.31.271-.619.542-.908.814-.413.375-.846.73-1.28 1.064v.125c-.041.146 0 .292.041.438.062.23.165.438.248.668.062.146.103.271.165.396.041.084.083.188.145.272.041.041.123.146.185.167.31-.146.62-.46.847-.689a8.81 8.81 0 00.577-.668c.228-.271.434-.563.64-.855.207-.292.413-.585.599-.877.144-.23.309-.48.433-.73s.351-.647.351-.94a.35.35 0 00-.062-.208c-.062-.062-.165-.062-.247-.083a.598.598 0 00-.186.041c-.103.042-.186.147-.269.21a3.475 3.475 0 01-.495.458l-.02.021h-.021c-.103.042-.227.084-.33.146-.145.063-.269.146-.413.23zM143.876 9.138c-.619.564-1.238 1.21-1.692 1.92-.351.543-.599 1.148-.62 1.795a.73.73 0 01-.041.208c-.041.105-.062.188-.103.293-.124.292-.289.563-.433.855a41.63 41.63 0 00-.723 1.336c-.227.605-.454 1.21-.66 1.815a5.095 5.095 0 00-.165.605c-.021.105-.062.23-.062.355l.041.063c.124-.042.268-.21.31-.293a9.41 9.41 0 00.639-.96c.145-.292.331-.584.496-.834.247-.376.495-.751.722-1.127a3.56 3.56 0 00.186-.292c.082-.146.165-.313.248-.46.247-.48.454-.96.66-1.46.206-.48.413-.98.599-1.482.061-.166.123-.333.165-.5.02-.105.062-.21.082-.313.021-.272.083-.543.145-.814.082-.25.144-.48.206-.71zm-15.459 11.623c.021.021.103.021.124.021.124 0 .206-.062.268-.167.104-.146.186-.27.289-.417v-.02h.021c.144-.126.31-.272.454-.418l.433-.438c.145-.146.289-.334.372-.522.083-.167.124-.334.144-.522 0-.083 0-.167-.041-.23-.02-.041-.062-.062-.124-.062-.371-.02-.97.814-1.135 1.064-.268.376-.784 1.148-.805 1.628v.083zm53.601 2.275c.02.02.103.02.123.02.124 0 .207-.062.269-.166.103-.146.185-.271.289-.418v-.02h.02a8.25 8.25 0 00.454-.418l.434-.438a1.84 1.84 0 00.371-.522c.083-.167.124-.333.145-.521 0-.084 0-.167-.041-.23-.021-.041-.062-.062-.124-.062-.372-.021-.97.813-1.135 1.064-.269.376-.785 1.148-.805 1.628-.021 0-.021.062 0 .083z" fill="#fff" stroke="#000" stroke-width=".216" stroke-miterlimit="22.926"/><path d="M3.055 54.444a1.69 1.69 0 001.096-.38 1.34 1.34 0 00.52-.951h1.11a2.126 2.126 0 01-.406 1.121c-.25.355-.583.639-1.002.85a2.86 2.86 0 01-1.318.317c-.934 0-1.678-.31-2.231-.932C.274 53.844 0 52.99 0 51.909v-.197c0-.668.123-1.261.368-1.781s.595-.923 1.052-1.21c.46-.288 1.003-.432 1.629-.432.769 0 1.407.23 1.914.691.511.46.784 1.059.817 1.794H4.671a1.598 1.598 0 00-.507-1.09c-.3-.288-.672-.431-1.115-.431-.596 0-1.059.215-1.388.646-.326.427-.488 1.046-.488 1.857v.222c0 .79.162 1.399.488 1.825.325.427.79.64 1.394.64zm9.575.83c-.067-.135-.122-.376-.164-.723-.545.567-1.196.85-1.952.85-.676 0-1.232-.19-1.667-.57a1.87 1.87 0 01-.647-1.459c0-.714.27-1.267.811-1.66.546-.397 1.31-.596 2.295-.596h1.14v-.539c0-.41-.122-.735-.367-.976-.245-.245-.606-.367-1.084-.367-.418 0-.769.105-1.052.317-.283.21-.424.467-.424.767h-1.18c0-.343.121-.672.362-.99.245-.32.575-.574.989-.76a3.347 3.347 0 011.375-.279c.79 0 1.41.199 1.857.596.448.393.68.936.697 1.629v3.156c0 .63.08 1.13.241 1.502v.102h-1.23zm-1.945-.894a2.06 2.06 0 001.045-.285c.33-.19.569-.437.717-.742v-1.407h-.92c-1.436 0-2.154.42-2.154 1.262 0 .367.122.655.367.862.245.207.56.31.945.31zm11.692-5.964v6.858h-1.179v-5.888h-2.332l-.14 2.567c-.076 1.179-.274 2.022-.595 2.529-.317.507-.822.77-1.515.792h-.47V54.24l.337-.026c.38-.042.653-.262.817-.659.165-.397.27-1.132.317-2.205l.127-2.935h4.633zm2.87 3.366c0-.672.131-1.276.393-1.813.266-.537.634-.95 1.103-1.242a3.019 3.019 0 011.616-.438c.934 0 1.688.324 2.263.97.579.647.868 1.507.868 2.58v.082c0 .668-.129 1.268-.387 1.8a2.89 2.89 0 01-1.096 1.236c-.473.296-1.018.444-1.635.444-.93 0-1.684-.324-2.263-.97-.575-.646-.862-1.502-.862-2.567v-.082zm1.179.14c0 .76.175 1.37.526 1.83.355.461.828.692 1.42.692.596 0 1.069-.233 1.42-.698.35-.469.525-1.123.525-1.964 0-.752-.18-1.36-.538-1.826a1.692 1.692 0 00-1.42-.703c-.579 0-1.046.23-1.4.69-.356.461-.533 1.12-.533 1.978zm13.435 3.352H38.69v-2.928h-3.15v2.928h-1.18v-6.858h1.18v2.973h3.15v-2.973h1.172v6.858zm12.142-6.858h1.172v6.858h-1.172v-5l-3.163 5h-1.173v-6.858h1.173v5.007l3.163-5.007zm8.124 1.876a.903.903 0 00-.368-.76c-.245-.19-.58-.286-1.008-.286-.414 0-.76.108-1.04.324-.274.215-.411.469-.411.76h-1.166c0-.596.249-1.084.748-1.464.498-.38 1.121-.57 1.87-.57.802 0 1.427.173 1.875.52.448.342.672.832.672 1.47 0 .308-.093.591-.279.85a1.9 1.9 0 01-.792.614c.799.27 1.198.803 1.198 1.597 0 .63-.243 1.128-.729 1.496-.486.367-1.134.551-1.946.551-.79 0-1.443-.192-1.958-.576-.511-.39-.767-.913-.767-1.572h1.166c0 .334.148.62.444.862.3.236.672.355 1.115.355.448 0 .81-.104 1.084-.31a.964.964 0 00.412-.806c0-.384-.116-.659-.349-.824-.228-.169-.585-.253-1.07-.253h-1.173v-.99h1.274c.798-.02 1.198-.35 1.198-.988zm5.398.488h1.781c.778.009 1.393.212 1.845.609.452.397.678.936.678 1.616 0 .684-.232 1.234-.697 1.648-.465.414-1.09.62-1.876.62h-2.903v-6.857h1.172v2.364zm6.75 4.494h-1.178v-6.858h1.178v6.858zm-6.75-3.537v2.58h1.743c.44 0 .78-.112 1.02-.336.242-.228.362-.539.362-.932 0-.38-.118-.69-.355-.931-.232-.245-.56-.372-.982-.38h-1.788zm12.846 2.707c.419 0 .784-.127 1.097-.38a1.34 1.34 0 00.52-.951h1.109a2.126 2.126 0 01-.406 1.121 2.67 2.67 0 01-1.001.85 2.861 2.861 0 01-1.319.317c-.933 0-1.677-.31-2.23-.932-.55-.625-.825-1.479-.825-2.56v-.197c0-.668.123-1.261.368-1.781s.596-.923 1.052-1.21c.46-.288 1.004-.432 1.63-.432.768 0 1.406.23 1.913.691.511.46.784 1.059.818 1.794h-1.11a1.598 1.598 0 00-.506-1.09c-.3-.288-.672-.431-1.116-.431-.596 0-1.058.215-1.388.646-.325.427-.488 1.046-.488 1.857v.222c0 .79.163 1.399.488 1.825.325.427.79.64 1.394.64zm7.479-2.092h-.856v2.922h-1.18v-6.858h1.18v2.903h.766l2.307-2.903h1.42l-2.713 3.296 2.941 3.562h-1.49l-2.376-2.922zm10.405 2.922c-.068-.135-.123-.376-.165-.723-.545.567-1.196.85-1.952.85-.676 0-1.232-.19-1.667-.57a1.87 1.87 0 01-.646-1.459c0-.714.27-1.267.81-1.66.546-.397 1.31-.596 2.295-.596h1.141v-.539c0-.41-.122-.735-.367-.976-.246-.245-.607-.367-1.084-.367-.419 0-.77.105-1.052.317-.284.21-.425.467-.425.767h-1.179c0-.343.12-.672.361-.99.245-.32.575-.574.99-.76a3.347 3.347 0 011.374-.279c.79 0 1.41.199 1.858.596.447.393.68.936.697 1.629v3.156c0 .63.08 1.13.24 1.502v.102h-1.23zm-1.946-.894a2.06 2.06 0 001.046-.285c.33-.19.568-.437.716-.742v-1.407h-.919c-1.436 0-2.155.42-2.155 1.262 0 .367.123.655.368.862.245.207.56.31.944.31zm11.674.894h-1.173v-2.928h-3.15v2.928h-1.179v-6.858h1.179v2.973h3.15v-2.973h1.173v6.858zm8.789 0H113.6v-2.928h-3.15v2.928h-1.179v-6.858h1.179v2.973h3.15v-2.973h1.172v6.858zm4.467-4.494h1.781c.778.009 1.393.212 1.845.609.452.397.678.936.678 1.616 0 .684-.233 1.234-.697 1.648-.465.414-1.09.62-1.876.62h-2.903v-6.857h1.172v2.364zm6.75 4.494h-1.179v-6.858h1.179v6.858zm-6.75-3.537v2.58h1.743c.44 0 .78-.112 1.021-.336.241-.228.361-.539.361-.932 0-.38-.118-.69-.355-.931-.232-.245-.56-.372-.982-.38h-1.788zm12.396-.817l1.521-2.504h1.369l-2.243 3.391 2.313 3.467h-1.356l-1.585-2.567-1.584 2.567h-1.363l2.313-3.467-2.243-3.39h1.356l1.502 2.503zm15.051-1.553h-2.301v5.907h-1.173v-5.907h-2.256v-.95h5.73v.95zm4.574 2.985h-.855v2.922h-1.179v-6.858h1.179v2.903h.767l2.307-2.903h1.419l-2.712 3.296 2.941 3.562h-1.49l-2.377-2.922zm10.406 2.922c-.067-.135-.122-.376-.164-.723-.546.567-1.196.85-1.953.85-.676 0-1.231-.19-1.667-.57a1.869 1.869 0 01-.646-1.459c0-.714.27-1.267.811-1.66.545-.397 1.31-.596 2.295-.596h1.14v-.539c0-.41-.122-.735-.367-.976-.245-.245-.606-.367-1.084-.367-.418 0-.769.105-1.052.317-.283.21-.425.467-.425.767h-1.179c0-.343.121-.672.362-.99.245-.32.574-.574.988-.76a3.35 3.35 0 011.376-.279c.79 0 1.409.199 1.857.596.448.393.68.936.697 1.629v3.156c0 .63.08 1.13.241 1.502v.102h-1.23zm-1.945-.894a2.06 2.06 0 001.045-.285c.33-.19.569-.437.716-.742v-1.407h-.919c-1.436 0-2.154.42-2.154 1.262 0 .367.122.655.367.862.245.207.56.31.945.31zm11.673.894h-1.173v-2.928h-3.15v2.928h-1.178v-6.858h1.178v2.973h3.15v-2.973h1.173v6.858zm6.033.126c-.93 0-1.686-.303-2.27-.912-.583-.613-.874-1.43-.874-2.453v-.215c0-.68.129-1.287.386-1.82a3.045 3.045 0 011.091-1.254 2.742 2.742 0 011.521-.457c.891 0 1.584.294 2.079.881.494.588.741 1.428.741 2.523v.488h-4.646c.017.676.214 1.223.59 1.642.38.414.862.62 1.445.62.414 0 .765-.084 1.052-.253a2.64 2.64 0 00.754-.672l.716.558c-.574.883-1.436 1.325-2.585 1.325zm-.146-6.147a1.56 1.56 0 00-1.192.52c-.321.342-.52.823-.596 1.445h3.436v-.09c-.034-.595-.195-1.056-.482-1.38-.287-.33-.676-.495-1.166-.495zm9.918-.837h1.172v6.858h-1.172v-5l-3.163 5h-1.173v-6.858h1.173v5.007l3.163-5.007zm.316-2.497c0 .511-.175.923-.526 1.236-.346.308-.802.462-1.369.462-.566 0-1.024-.156-1.375-.468-.351-.313-.526-.723-.526-1.23h.957c0 .296.08.528.241.697.16.165.395.247.703.247.296 0 .526-.082.691-.247.169-.165.254-.397.254-.697h.95z" fill="#fff"/></svg>