<svg width="102" height="56" viewBox="0 0 102 56" fill="none" xmlns="http://www.w3.org/2000/svg">
<path d="M99.636 33.6576H102V29.8644L90.1716 12.7997C87.9546 12.7997 75.0328 12.7997 75.0328 12.7997V0H15.424V7.58626H19.6809C20.6273 7.58626 21.5738 8.53455 21.5738 9.48283C21.5738 10.4311 20.6273 11.3751 19.6809 11.3751H15.424V7.60359H1.89289C0.946445 7.60359 0 8.55187 0 9.50015C0 10.4484 0.946445 11.3967 1.89289 11.3967H15.424V14.2242H27.7235C28.6699 14.2242 29.6164 15.1725 29.6164 16.1208C29.6164 17.0691 28.6699 18.013 27.7235 18.013H15.424V14.2372H9.93551C8.98907 14.2372 8.04262 15.1855 8.04262 16.1338C8.04262 17.0821 8.98907 18.0304 9.93551 18.0304H15.424V20.8579H19.6809C20.6273 20.8579 21.5738 21.8062 21.5738 22.7545C21.5738 23.7027 20.6273 24.651 19.6809 24.651H15.424V20.8752H1.89289C0.946445 20.8752 0 21.8235 0 22.7718C0 23.7201 0.946445 24.6684 1.89289 24.6684H15.424V27.9679H27.7235C28.6699 27.9679 29.6164 28.9161 29.6164 29.8644C29.6164 30.8127 28.6699 31.761 27.7235 31.761H15.424V27.9765H9.93551C8.98907 27.9765 8.04262 28.9248 8.04262 29.8731C8.04262 30.8214 8.98907 31.7696 9.93551 31.7696H15.424V46.4572H20.2513C20.7483 41.2005 25.2083 36.9744 30.5628 36.9744C35.7532 36.9744 40.1094 40.9537 40.8225 45.9809H75.0328H76.1262C76.8392 40.9537 81.1955 36.9744 86.3858 36.9744C91.5761 36.9744 95.9324 40.9537 96.6455 45.9809H101.996V37.4507H99.6317C98.6853 37.4507 97.7388 36.5024 97.7388 35.5541C97.7388 34.6058 98.6896 33.6576 99.636 33.6576ZM95.323 27.5825C95.1761 27.9332 94.5624 28.3446 94.1778 28.3446H80.4522C79.6916 28.3446 78.9266 27.5825 78.9266 26.8161V17.2683C78.9266 16.5062 79.6872 15.7398 80.4522 15.7398H87.6953C88.0756 15.7398 88.4559 16.1208 88.8405 16.5019L95.323 26.0496C95.7033 26.435 95.5261 27.0802 95.323 27.5825Z" fill="white"/>
<path d="M30.562 39.7451C25.9248 39.7451 22.4502 43.2308 22.4502 47.8726C22.4502 52.5188 25.9291 56.0002 30.562 56.0002C35.1991 56.0002 38.6737 52.5145 38.6737 47.8726C38.6737 43.2308 35.1991 39.7451 30.562 39.7451ZM30.562 50.973C28.8549 50.973 27.4677 49.5873 27.4677 47.8726C27.4677 46.1623 28.8549 44.7723 30.562 44.7723C32.269 44.7723 33.6563 46.1579 33.6563 47.8726C33.6563 49.5873 32.269 50.973 30.562 50.973Z" fill="white"/>
<path d="M86.4174 39.7451C81.7803 39.7451 78.3057 43.2308 78.3057 47.8726C78.3057 52.5188 81.7846 56.0002 86.4174 56.0002C91.0546 56.0002 94.5292 52.5145 94.5292 47.8726C94.5335 43.2308 91.0546 39.7451 86.4174 39.7451ZM86.4174 50.973C84.7104 50.973 83.3231 49.5873 83.3231 47.8726C83.3231 46.1623 84.706 44.7723 86.4174 44.7723C88.1245 44.7723 89.5117 46.1579 89.5117 47.8726C89.5117 49.5873 88.1288 50.973 86.4174 50.973Z" fill="white"/>
</svg>
