<svg width="144" height="144" viewBox="0 0 144 144" fill="none" xmlns="http://www.w3.org/2000/svg">
<path d="M115.636 77.3263H118V73.5705L106.172 56.6737C103.955 56.6737 91.0328 56.6737 91.0328 56.6737V44H31.424V51.5116H35.6809C36.6273 51.5116 37.5738 52.4506 37.5738 53.3895C37.5738 54.3285 36.6273 55.2631 35.6809 55.2631H31.424L31.424 51.5288H17.8929C16.9464 51.5288 16 52.4677 16 53.4067C16 54.3456 16.9464 55.2846 17.8929 55.2846H31.424L31.424 58.0843H43.7235C44.6699 58.0843 45.6164 59.0232 45.6164 59.9622C45.6164 60.9011 44.6699 61.8358 43.7235 61.8358H31.424V58.0971H25.9355C24.9891 58.0971 24.0426 59.0361 24.0426 59.975C24.0426 60.914 24.9891 61.8529 25.9355 61.8529H31.424L31.424 64.6526H35.6809C36.6273 64.6526 37.5738 65.5916 37.5738 66.5305C37.5738 67.4695 36.6273 68.4084 35.6809 68.4084H31.424V64.6698H17.8929C16.9464 64.6698 16 65.6087 16 66.5477C16 67.4866 16.9464 68.4256 17.8929 68.4256H31.424V71.6926H43.7235C44.6699 71.6926 45.6164 72.6316 45.6164 73.5705C45.6164 74.5095 44.6699 75.4484 43.7235 75.4484H31.424L31.424 71.7012H25.9355C24.9891 71.7012 24.0426 72.6401 24.0426 73.5791C24.0426 74.518 24.9891 75.457 25.9355 75.457H31.424V90H36.2513C36.7483 84.795 41.2083 80.6105 46.5628 80.6105C51.7532 80.6105 56.1094 84.5507 56.8225 89.5284H91.0328H92.1262C92.8393 84.5507 97.1955 80.6105 102.386 80.6105C107.576 80.6105 111.932 84.5507 112.645 89.5284H117.996V81.0821H115.632C114.685 81.0821 113.739 80.1432 113.739 79.2042C113.739 78.2653 114.69 77.3263 115.636 77.3263ZM111.323 71.311C111.176 71.6583 110.562 72.0656 110.178 72.0656H96.4522C95.6916 72.0656 94.9266 71.311 94.9266 70.5521V61.0983C94.9266 60.3437 95.6872 59.5849 96.4522 59.5849H103.695C104.076 59.5849 104.456 59.9622 104.841 60.3395L111.323 69.7933C111.703 70.1749 111.526 70.8137 111.323 71.311Z" fill="white"/>
<path d="M46.562 83.7451C41.9248 83.7451 38.4502 87.2308 38.4502 91.8726C38.4502 96.5188 41.9291 100 46.562 100C51.1991 100 54.6737 96.5145 54.6737 91.8726C54.6737 87.2308 51.1991 83.7451 46.562 83.7451ZM46.562 94.973C44.8549 94.973 43.4677 93.5873 43.4677 91.8726C43.4677 90.1623 44.8549 88.7723 46.562 88.7723C48.269 88.7723 49.6563 90.1579 49.6563 91.8726C49.6563 93.5873 48.269 94.973 46.562 94.973Z" fill="white"/>
<path d="M102.417 83.7451C97.7803 83.7451 94.3057 87.2308 94.3057 91.8726C94.3057 96.5188 97.7846 100 102.417 100C107.055 100 110.529 96.5145 110.529 91.8726C110.534 87.2308 107.055 83.7451 102.417 83.7451ZM102.417 94.973C100.71 94.973 99.3231 93.5873 99.3231 91.8726C99.3231 90.1623 100.706 88.7723 102.417 88.7723C104.124 88.7723 105.512 90.1579 105.512 91.8726C105.512 93.5873 104.129 94.973 102.417 94.973Z" fill="white"/>
<rect x="16" y="51" width="22" height="5" rx="2.5" fill="#D84346"/>
<rect x="16" y="51" width="22" height="5" rx="2.5" fill="#7E7A7A"/>
<rect x="24" y="58" width="22" height="5" rx="2.5" fill="#7E7A7A"/>
<rect x="16" y="64" width="22" height="5" rx="2.5" fill="#7E7A7A"/>
<rect x="24" y="71" width="22" height="5" rx="2.5" fill="#7E7A7A"/>
</svg>
