<svg width="102" height="56" fill="none" xmlns="http://www.w3.org/2000/svg"><path d="M99.636 33.658H102v-3.794L90.172 12.8h-15.14V0H15.425v7.586h4.257c.946 0 1.893.949 1.893 1.897 0 .948-.947 1.892-1.893 1.892h-4.257V7.604H1.893C.946 7.604 0 8.552 0 9.5s.946 1.897 1.893 1.897h13.531v2.827h12.3c.946 0 1.892.948 1.892 1.897 0 .948-.946 1.892-1.892 1.892h-12.3v-3.776H9.936c-.947 0-1.893.948-1.893 1.897 0 .948.946 1.896 1.893 1.896h5.488v2.828h4.257c.946 0 1.893.948 1.893 1.896 0 .949-.947 1.897-1.893 1.897h-4.257v-3.776H1.893c-.947 0-1.893.948-1.893 1.897 0 .948.946 1.896 1.893 1.896h13.531v3.3h12.3c.946 0 1.892.948 1.892 1.896 0 .949-.946 1.897-1.892 1.897h-12.3v-3.784H9.936c-.947 0-1.893.948-1.893 1.896s.946 1.897 1.893 1.897h5.488v14.687h4.827c.497-5.257 4.957-9.483 10.312-9.483 5.19 0 9.546 3.98 10.26 9.007h35.303c.713-5.027 5.07-9.007 10.26-9.007 5.19 0 9.546 3.98 10.26 9.007h5.35v-8.53h-2.364c-.947 0-1.893-.949-1.893-1.897 0-.948.95-1.896 1.897-1.896zm-4.313-6.076c-.147.351-.76.763-1.145.763H80.452c-.76 0-1.525-.762-1.525-1.529v-9.548c0-.762.76-1.528 1.525-1.528h7.243c.38 0 .76.38 1.146.762l6.482 9.548c.38.385.203 1.03 0 1.532z" fill="#fff"/><path d="M30.562 39.745c-4.637 0-8.112 3.486-8.112 8.128 0 4.646 3.48 8.127 8.112 8.127 4.637 0 8.112-3.486 8.112-8.127 0-4.642-3.475-8.128-8.112-8.128zm0 11.228a3.097 3.097 0 01-3.094-3.1 3.1 3.1 0 013.094-3.1 3.097 3.097 0 013.094 3.1c0 1.714-1.387 3.1-3.094 3.1zm55.855-11.228c-4.637 0-8.111 3.486-8.111 8.128 0 4.646 3.479 8.127 8.111 8.127 4.638 0 8.112-3.486 8.112-8.127.005-4.642-3.474-8.128-8.112-8.128zm0 11.228a3.097 3.097 0 01-3.094-3.1c0-1.71 1.383-3.1 3.094-3.1a3.097 3.097 0 013.095 3.1c0 1.714-1.383 3.1-3.095 3.1z" fill="#fff"/></svg>