<svg width="34" height="35" viewBox="0 0 34 35" fill="none" xmlns="http://www.w3.org/2000/svg">
<circle cx="17" cy="17.501" r="16.5" fill="#1E1E1E" stroke="#E33236"/>
<path d="M15.7598 20.9033C15.7598 19.9508 15.8779 19.1917 16.1143 18.626C16.3506 18.0602 16.8161 17.4408 17.5107 16.7676C18.2126 16.0872 18.6566 15.6038 18.8428 15.3174C19.1292 14.8805 19.2725 14.4079 19.2725 13.8994C19.2725 13.2262 19.1042 12.7142 18.7676 12.3633C18.4382 12.0052 17.9512 11.8262 17.3066 11.8262C16.6908 11.8262 16.193 12.0016 15.8135 12.3525C15.4411 12.6963 15.2549 13.1654 15.2549 13.7598H12.6445C12.6589 12.4922 13.0885 11.4896 13.9336 10.752C14.7858 10.0143 15.9102 9.64551 17.3066 9.64551C18.7461 9.64551 19.8669 10.0107 20.6689 10.7412C21.4782 11.4717 21.8828 12.4922 21.8828 13.8027C21.8828 14.9701 21.3385 16.1195 20.25 17.251L18.9287 18.5508C18.4561 19.0879 18.2126 19.8721 18.1982 20.9033H15.7598ZM15.5771 24.2441C15.5771 23.8216 15.7096 23.4814 15.9746 23.2236C16.2396 22.9587 16.5977 22.8262 17.0488 22.8262C17.5072 22.8262 17.8688 22.9622 18.1338 23.2344C18.3988 23.4993 18.5312 23.8359 18.5312 24.2441C18.5312 24.638 18.4023 24.9674 18.1445 25.2324C17.8867 25.4974 17.5215 25.6299 17.0488 25.6299C16.5762 25.6299 16.2109 25.4974 15.9531 25.2324C15.7025 24.9674 15.5771 24.638 15.5771 24.2441Z" fill="white"/>
</svg>
