<svg width="34" height="35" fill="none" xmlns="http://www.w3.org/2000/svg"><circle cx="17" cy="17.501" r="16.5" fill="#1E1E1E" stroke="#E33236"/><path d="M15.76 20.903c0-.952.118-1.711.354-2.277.237-.566.702-1.185 1.397-1.858.702-.68 1.146-1.164 1.332-1.45.286-.438.43-.91.43-1.419 0-.673-.169-1.185-.505-1.536-.33-.358-.817-.537-1.461-.537-.616 0-1.114.176-1.493.526-.373.344-.56.813-.56 1.408h-2.61c.015-1.268.444-2.27 1.29-3.008.852-.738 1.976-1.106 3.373-1.106 1.44 0 2.56.365 3.362 1.095.81.73 1.214 1.751 1.214 3.062 0 1.167-.544 2.316-1.633 3.448l-1.321 1.3c-.473.537-.716 1.321-.73 2.352h-2.44zm-.183 3.341c0-.422.133-.763.398-1.02.265-.265.623-.398 1.074-.398.458 0 .82.136 1.085.408.265.265.397.602.397 1.01 0 .394-.129.723-.386.988-.258.265-.623.398-1.096.398-.473 0-.838-.133-1.096-.398a1.383 1.383 0 01-.376-.988z" fill="#fff"/></svg>