<svg width="144" height="145" viewBox="0 0 144 145" fill="none" xmlns="http://www.w3.org/2000/svg">
<path d="M99.9112 42.5723L89.7654 48.5232L89.7038 52.8852L76.311 68.3231C75.1675 69.6393 75.3071 71.6329 76.6244 72.7731C77.9384 73.9156 79.9319 73.7715 81.0711 72.4575L89.5631 62.6691L89.3586 76.9966C89.3586 78.6745 90.5021 80.0875 92.0514 80.5009C92.025 80.6757 92.0063 80.8594 92.0063 81.0419V111.512L87.7301 112.526C85.8597 112.526 84.3456 114.043 84.3456 115.912C84.3456 117.782 85.8619 117.48 87.7301 117.48H95.0412C95.1533 117.495 95.271 117.499 95.3875 117.499C97.2579 117.499 98.7709 115.985 98.7709 114.115V81.0419C98.7709 80.8814 98.7577 80.723 98.7357 80.5658C100.433 80.2656 101.725 78.7823 101.725 76.9966L103.54 46.202C103.541 44.1985 101.917 42.5734 99.9112 42.5723Z" fill="white"/>
<path d="M95.3899 41.4966C99.2552 41.4966 102.389 38.3631 102.389 34.4978C102.389 30.6325 99.2552 27.499 95.3899 27.499C91.5246 27.499 88.3911 30.6325 88.3911 34.4978C88.3911 38.3631 91.5246 41.4966 95.3899 41.4966Z" fill="white"/>
<path d="M42 46.6297L43.8143 77.4243C43.8143 79.21 45.1063 80.6933 46.804 80.9935C46.7809 81.1508 46.7688 81.3091 46.7688 81.4696V114.541C46.7688 116.412 48.2819 117.926 50.1522 117.926C50.2688 117.926 50.3875 117.922 50.4986 117.906H57.8097C59.6778 117.906 61.1941 118.209 61.1941 116.338C61.1941 114.47 59.68 112.953 57.8097 112.953L53.5334 111.939V81.4696C53.5334 81.2871 53.5147 81.1035 53.4883 80.9287C55.0376 80.5152 56.1812 79.1034 56.1812 77.4243L55.9789 63.0969L64.4698 72.8853C65.61 74.1993 67.6035 74.3433 68.9175 73.2009C70.2337 72.0595 70.3734 70.0671 69.2309 68.7509L55.8359 53.3129L55.7743 48.9509L45.6286 43C43.6241 43.0011 42 44.6263 42 46.6297Z" fill="white"/>
<path d="M49.1521 41.4966C53.0174 41.4966 56.1509 38.3631 56.1509 34.4978C56.1509 30.6325 53.0174 27.499 49.1521 27.499C45.2868 27.499 42.1533 30.6325 42.1533 34.4978C42.1533 38.3631 45.2868 41.4966 49.1521 41.4966Z" fill="white"/>
<path d="M77.5373 52.7861L78.3422 50.2318C78.0201 49.2818 77.3097 49.7194 76.3608 50.0416L71.3006 51.7591C70.3516 52.0813 69.5215 52.1671 69.8436 53.116L72.0373 54.6521L77.5373 52.7861Z" fill="#7E7A7A"/>
<path d="M77.5204 53.042L77.2444 53.1355L72.4855 54.7518L72.2095 54.8453C69.8355 57.6261 69.2143 62.7798 70.3534 66.1302C71.807 70.4141 75.2916 69.2706 79.5755 67.8169C83.8595 66.3633 87.3198 65.1483 85.8662 60.8643C84.7281 57.514 81.0962 53.804 77.5204 53.042ZM78.7838 63.7727L79.1808 64.9416L78.057 65.3231L77.692 64.2455C76.9212 64.4698 76.1108 64.505 75.5984 64.4116L75.4873 62.9689C76.0536 63.0679 76.8024 63.0789 77.5402 62.8282C78.1989 62.605 78.5529 62.1948 78.4023 61.7517C78.2549 61.3196 77.7997 61.1711 76.853 61.1766C75.5005 61.1799 74.4801 60.8951 74.1063 59.7934C73.7632 58.784 74.2008 57.7614 75.3378 57.1236L74.9716 56.046L76.0844 55.6689L76.4242 56.6662C77.1807 56.4364 77.748 56.432 78.2066 56.4804L78.3022 57.8768C77.9712 57.8361 77.3511 57.757 76.533 58.0352C75.7963 58.2859 75.6698 58.6949 75.7776 59.0127C75.9008 59.3755 76.3824 59.491 77.4775 59.5108C78.9884 59.5284 79.7339 59.9715 80.0846 61.0029C80.4266 62.0134 80.0154 63.1141 78.7838 63.7727Z" fill="#7E7A7A"/>
</svg>
