<svg width="63" height="90" fill="none" xmlns="http://www.w3.org/2000/svg"><path d="M58.911 15.073l-10.146 5.951-.061 4.362L35.31 40.824a3.152 3.152 0 104.76 4.134l8.492-9.788-.204 14.328a3.632 3.632 0 002.692 3.504 3.65 3.65 0 00-.045.54v30.471l-4.276 1.014a3.385 3.385 0 00-3.384 3.385c0 1.87 1.516 1.569 3.384 1.569h7.311a3.382 3.382 0 003.73-3.365V53.543c0-.16-.013-.319-.035-.476a3.627 3.627 0 002.99-3.57l1.814-30.794a3.629 3.629 0 00-3.629-3.63zm-4.521-1.075A6.999 6.999 0 1054.39 0a6.999 6.999 0 000 13.998zM0 18.703l1.814 30.795a3.627 3.627 0 002.99 3.569 3.268 3.268 0 00-.035.476v33.072a3.382 3.382 0 003.73 3.364h7.31c1.869 0 3.385.303 3.385-1.568a3.385 3.385 0 00-3.384-3.385l-4.277-1.014v-30.47a3.65 3.65 0 00-.045-.54 3.63 3.63 0 002.693-3.504L13.98 35.17l8.49 9.788a3.153 3.153 0 104.762-4.134L13.836 25.386l-.062-4.362-10.145-5.95A3.63 3.63 0 000 18.702zm8.152-4.705A6.999 6.999 0 108.152 0a6.999 6.999 0 000 13.998zm29.385 12.289l.805-2.554c-.322-.95-1.032-.513-1.981-.19L31.3 25.26c-.95.322-1.78.408-1.457 1.357l2.193 1.536 5.5-1.866z" fill="#fff"/><path d="M37.52 26.543l-.276.093-4.758 1.617-.276.093c-2.375 2.781-2.996 7.935-1.857 11.285 1.454 4.284 4.939 3.14 9.222 1.687 4.284-1.454 7.745-2.669 6.291-6.953-1.138-3.35-4.77-7.06-8.346-7.822zm1.264 10.73l.397 1.17-1.124.381-.365-1.078c-.77.225-1.581.26-2.094.166l-.11-1.442c.566.099 1.314.11 2.052-.14.659-.224 1.013-.634.862-1.077-.147-.432-.602-.58-1.549-.575-1.352.003-2.373-.282-2.747-1.384-.343-1.01.095-2.032 1.232-2.67l-.366-1.077 1.112-.377.34.997c.757-.23 1.324-.234 1.783-.186l.095 1.397c-.33-.04-.95-.12-1.769.158-.737.25-.863.66-.755.978.123.362.604.478 1.7.498 1.51.017 2.256.46 2.607 1.492.342 1.01-.07 2.111-1.301 2.77z" fill="#fff"/></svg>