<svg width="63" height="90" viewBox="0 0 63 90" fill="none" xmlns="http://www.w3.org/2000/svg">
<path d="M58.9112 15.0732L48.7654 21.0241L48.7038 25.3861L35.311 40.8241C34.1675 42.1403 34.3071 44.1338 35.6244 45.2741C36.9384 46.4165 38.9319 46.2725 40.0711 44.9585L48.5631 35.1701L48.3586 49.4976C48.3586 51.1755 49.5021 52.5884 51.0514 53.0019C51.025 53.1767 51.0063 53.3604 51.0063 53.5429V84.0131L46.7301 85.0269C44.8597 85.0269 43.3456 86.5443 43.3456 88.4125C43.3456 90.2829 44.8619 89.9805 46.7301 89.9805H54.0412C54.1533 89.9959 54.271 90.0003 54.3875 90.0003C56.2579 90.0003 57.7709 88.4862 57.7709 86.6158V53.5429C57.7709 53.3823 57.7577 53.224 57.7357 53.0668C59.4335 52.7666 60.7255 51.2833 60.7255 49.4976L62.5398 18.7029C62.5409 16.6995 60.9168 15.0743 58.9112 15.0732Z" fill="white"/>
<path d="M54.3899 13.9976C58.2552 13.9976 61.3887 10.8641 61.3887 6.99878C61.3887 3.13346 58.2552 0 54.3899 0C50.5246 0 47.3911 3.13346 47.3911 6.99878C47.3911 10.8641 50.5246 13.9976 54.3899 13.9976Z" fill="white"/>
<path d="M0 18.7029L1.81429 49.4976C1.81429 51.2833 3.10629 52.7666 4.80403 53.0668C4.78094 53.224 4.76885 53.3823 4.76885 53.5429V86.6147C4.76885 88.4851 6.28186 89.9992 8.15223 89.9992C8.26879 89.9992 8.38754 89.9948 8.4986 89.9794H15.8097C17.6778 89.9794 19.1941 90.2818 19.1941 88.4114C19.1941 86.5433 17.68 85.0258 15.8097 85.0258L11.5334 84.012V53.5429C11.5334 53.3604 11.5147 53.1767 11.4883 53.0019C13.0376 52.5885 14.1812 51.1766 14.1812 49.4976L13.9789 35.1701L22.4698 44.9585C23.61 46.2725 25.6035 46.4166 26.9175 45.2741C28.2337 44.1327 28.3734 42.1403 27.2309 40.8241L13.8359 25.3861L13.7743 21.0241L3.62859 15.0732C1.62407 15.0743 0 16.6995 0 18.7029Z" fill="white"/>
<path d="M8.1521 13.9976C12.0174 13.9976 15.1509 10.8641 15.1509 6.99878C15.1509 3.13346 12.0174 0 8.1521 0C4.28678 0 1.15332 3.13346 1.15332 6.99878C1.15332 10.8641 4.28678 13.9976 8.1521 13.9976Z" fill="white"/>
<path d="M37.5373 26.2871L38.3422 23.7328C38.0201 22.7828 37.3097 23.2204 36.3608 23.5426L31.3006 25.2601C30.3516 25.5823 29.5215 25.668 29.8436 26.617L32.0373 28.1531L37.5373 26.2871Z" fill="white"/>
<path d="M37.5204 26.543L37.2444 26.6364L32.4855 28.2528L32.2095 28.3463C29.8355 31.1271 29.2143 36.2808 30.3534 39.6312C31.807 43.9151 35.2916 42.7716 39.5755 41.3179C43.8595 39.8643 47.3198 38.6493 45.8662 34.3653C44.7281 31.0149 41.0962 27.305 37.5204 26.543ZM38.7838 37.2737L39.1808 38.4425L38.057 38.8241L37.692 37.7465C36.9212 37.9708 36.1108 38.006 35.5984 37.9125L35.4873 36.4699C36.0536 36.5689 36.8024 36.5799 37.5402 36.3292C38.1989 36.106 38.5529 35.6958 38.4023 35.2527C38.2549 34.8206 37.7997 34.6721 36.853 34.6776C35.5005 34.6809 34.4801 34.3961 34.1063 33.2943C33.7632 32.2849 34.2008 31.2623 35.3378 30.6246L34.9716 29.547L36.0844 29.1698L36.4242 30.1672C37.1807 29.9374 37.748 29.9329 38.2066 29.9813L38.3022 31.3778C37.9712 31.3371 37.3511 31.2579 36.533 31.5361C35.7963 31.7868 35.6698 32.1959 35.7776 32.5136C35.9008 32.8765 36.3824 32.992 37.4775 33.0118C38.9884 33.0293 39.7339 33.4725 40.0846 34.5039C40.4266 35.5144 40.0154 36.6151 38.7838 37.2737Z" fill="white"/>
</svg>
