<svg width="85" height="90" viewBox="0 0 85 90" fill="none" xmlns="http://www.w3.org/2000/svg">
<path d="M76.8679 62.7328C74.4953 63.5869 70.6042 64.6309 66.3335 65.5799C64.8151 68.0474 62.0629 70.1353 57.6973 70.9895C56.6533 71.1793 55.5145 71.2742 54.2807 71.2742C51.2438 71.3691 47.7323 71.0844 43.7463 70.7048C43.4616 70.7048 43.1769 70.7048 42.8922 70.6098C41.9432 70.5149 41.089 69.7557 40.9941 68.8067C40.8992 67.5729 41.9432 66.6239 43.082 66.7188C43.3667 66.7188 43.7463 66.8137 44.0311 66.8137C49.1559 67.2882 53.9011 67.6678 56.938 67.0984C62.5374 66.0544 64.1508 62.6379 63.7711 59.7908C63.4864 57.4182 61.7781 55.2354 58.931 55.4252C54.945 55.7099 50.2947 55.4252 45.8342 55.0456C40.7094 54.6659 35.3948 54.571 31.5986 54.9506C27.4228 55.4252 18.8814 58.557 11.384 63.5869C7.68273 66.0544 3.60184 69.0914 1.13433 70.8946C-0.0994211 71.8436 -0.384134 73.5519 0.564909 74.7856L11.4789 88.9264C12.4279 90.1601 14.1362 90.3499 15.37 89.4009L19.3559 86.269C20.305 85.5098 21.5387 85.32 22.6776 85.6996C29.9852 88.0722 37.8623 89.5907 42.9871 89.8754C54.2807 90.6346 75.824 77.348 81.9928 73.0774C88.1615 68.8067 83.701 60.2653 76.8679 62.7328Z" fill="white"/>
<path d="M49.0606 47.9266C62.2523 47.9266 72.9764 37.2025 72.9764 24.0108C72.9764 10.8191 62.2523 0 49.0606 0C35.8689 0 25.0498 10.7242 25.0498 23.9159C25.0498 37.1076 35.774 47.9266 49.0606 47.9266ZM46.9727 12.0528V9.0159C46.9727 8.73119 47.2574 8.44648 47.5421 8.44648H50.4841C50.7689 8.44648 51.0536 8.73119 51.0536 9.0159V11.9579C54.0905 12.1477 56.4631 14.4254 56.7478 17.4624C56.7478 17.842 56.4631 18.1267 56.1784 18.1267H53.2364C52.9517 18.1267 52.7618 17.9369 52.6669 17.6522C52.4771 16.7031 51.623 16.0388 50.6739 16.0388H48.1115C46.5931 16.0388 45.1695 17.1777 44.9797 18.6961C44.7899 20.4044 46.2135 21.9229 47.9217 21.9229H50.1045C54.1854 21.9229 57.5071 25.4343 57.1274 29.6101C56.8427 32.8369 54.1854 35.3044 51.0536 35.7789V38.8158C51.0536 39.1006 50.7689 39.3853 50.4841 39.3853H47.5421C47.2574 39.3853 46.9727 39.1006 46.9727 38.8158V35.8738C43.9357 35.684 41.5631 33.4063 41.2784 30.3694C41.2784 29.9897 41.5631 29.7999 41.8479 29.7999H44.7899C45.0746 29.7999 45.2644 29.9897 45.3593 30.2745C45.5491 31.2235 46.4033 31.8878 47.3523 31.8878H49.9147C51.4332 31.8878 52.8567 30.749 53.0466 29.2305C53.2364 27.5222 51.8128 26.0038 50.1045 26.0038H48.2064C44.5052 26.0038 41.2784 23.3464 40.8988 19.6452C40.5192 15.849 43.2714 12.5274 46.9727 12.0528Z" fill="white"/>
</svg>
