<svg width="85" height="90" fill="none" xmlns="http://www.w3.org/2000/svg"><path d="M76.868 62.733c-2.373.854-6.264 1.898-10.534 2.847-1.519 2.467-4.271 4.555-8.637 5.41-1.044.19-2.183.284-3.416.284-3.037.095-6.549-.19-10.535-.57-.284 0-.57 0-.854-.094-.949-.095-1.803-.854-1.898-1.803a1.943 1.943 0 012.088-2.088c.285 0 .664.095.95.095 5.124.474 9.87.854 12.906.284 5.6-1.044 7.213-4.46 6.833-7.307-.285-2.373-1.993-4.556-4.84-4.366-3.986.285-8.636 0-13.097-.38-5.125-.38-10.44-.474-14.235-.094-4.176.474-12.718 3.606-20.215 8.636-3.701 2.467-7.782 5.504-10.25 7.308-1.233.949-1.518 2.657-.57 3.89L11.48 88.927c.949 1.234 2.657 1.424 3.891.475l3.986-3.132c.949-.76 2.183-.949 3.322-.57 7.307 2.373 15.184 3.892 20.31 4.176 11.293.76 32.836-12.527 39.005-16.798 6.169-4.27 1.708-12.812-5.125-10.344zM49.06 47.927c13.192 0 23.916-10.724 23.916-23.916S62.252 0 49.061 0C35.869 0 25.05 10.724 25.05 23.916s10.724 24.01 24.01 24.01zm-2.087-35.874V9.016c0-.285.284-.57.57-.57h2.941c.285 0 .57.285.57.57v2.942c3.036.19 5.41 2.467 5.694 5.504 0 .38-.285.665-.57.665h-2.942c-.284 0-.474-.19-.57-.475-.189-.949-1.043-1.613-1.992-1.613H48.11c-1.518 0-2.941 1.139-3.131 2.657-.19 1.708 1.234 3.227 2.942 3.227h2.183c4.08 0 7.402 3.511 7.022 7.687-.284 3.227-2.942 5.694-6.073 6.169v3.037c0 .285-.285.57-.57.57h-2.942c-.285 0-.57-.285-.57-.57v-2.942c-3.036-.19-5.409-2.468-5.694-5.505 0-.38.285-.57.57-.57h2.942c.285 0 .474.19.57.476.19.949 1.043 1.613 1.992 1.613h2.563c1.518 0 2.942-1.139 3.132-2.658.19-1.708-1.234-3.226-2.942-3.226h-1.899c-3.7 0-6.928-2.658-7.307-6.359-.38-3.796 2.372-7.118 6.074-7.592z" fill="#fff"/></svg>