<svg width="144" height="144" viewBox="0 0 144 144" fill="none" xmlns="http://www.w3.org/2000/svg">
<path d="M101.868 89.7328C99.4953 90.5869 95.6042 91.6309 91.3335 92.5799C89.8151 95.0474 87.0629 97.1353 82.6973 97.9895C81.6533 98.1793 80.5145 98.2742 79.2807 98.2742C76.2438 98.3691 72.7323 98.0844 68.7463 97.7048C68.4616 97.7048 68.1769 97.7048 67.8922 97.6098C66.9432 97.5149 66.089 96.7557 65.9941 95.8067C65.8992 94.5729 66.9432 93.6239 68.082 93.7188C68.3667 93.7188 68.7463 93.8137 69.0311 93.8137C74.1559 94.2882 78.9011 94.6678 81.938 94.0984C87.5374 93.0544 89.1508 89.6379 88.7711 86.7908C88.4864 84.4182 86.7782 82.2354 83.931 82.4252C79.945 82.7099 75.2947 82.4252 70.8342 82.0456C65.7094 81.6659 60.3948 81.571 56.5986 81.9506C52.4228 82.4252 43.8814 85.557 36.384 90.5869C32.6827 93.0544 28.6018 96.0914 26.1343 97.8946C24.9006 98.8436 24.6159 100.552 25.5649 101.786L36.4789 115.926C37.4279 117.16 39.1362 117.35 40.37 116.401L44.3559 113.269C45.305 112.51 46.5387 112.32 47.6776 112.7C54.9852 115.072 62.8623 116.591 67.9871 116.875C79.2807 117.635 100.824 104.348 106.993 100.077C113.162 95.8067 108.701 87.2653 101.868 89.7328Z" fill="white"/>
<path d="M74.0606 74.9266C87.2523 74.9266 97.9764 64.2025 97.9764 51.0108C97.9764 37.8191 87.2523 27 74.0606 27C60.8689 27 50.0498 37.7242 50.0498 50.9159C50.0498 64.1076 60.774 74.9266 74.0606 74.9266ZM71.9727 39.0528V36.0159C71.9727 35.7312 72.2574 35.4465 72.5421 35.4465H75.4841C75.7689 35.4465 76.0536 35.7312 76.0536 36.0159V38.9579C79.0905 39.1477 81.4631 41.4254 81.7478 44.4624C81.7478 44.842 81.4631 45.1267 81.1784 45.1267H78.2364C77.9517 45.1267 77.7618 44.9369 77.6669 44.6522C77.4771 43.7031 76.623 43.0388 75.6739 43.0388H73.1115C71.5931 43.0388 70.1695 44.1777 69.9797 45.6961C69.7899 47.4044 71.2135 48.9229 72.9217 48.9229H75.1045C79.1854 48.9229 82.5071 52.4343 82.1274 56.6101C81.8427 59.8369 79.1854 62.3044 76.0536 62.7789V65.8158C76.0536 66.1005 75.7689 66.3853 75.4841 66.3853H72.5421C72.2574 66.3853 71.9727 66.1005 71.9727 65.8158V62.8738C68.9357 62.684 66.5631 60.4063 66.2784 57.3694C66.2784 56.9897 66.5631 56.7999 66.8479 56.7999H69.7899C70.0746 56.7999 70.2644 56.9897 70.3593 57.2745C70.5491 58.2235 71.4033 58.8878 72.3523 58.8878H74.9147C76.4332 58.8878 77.8567 57.749 78.0466 56.2305C78.2364 54.5222 76.8128 53.0038 75.1045 53.0038H73.2064C69.5052 53.0038 66.2784 50.3464 65.8988 46.6452C65.5192 42.849 68.2714 39.5274 71.9727 39.0528Z" fill="#7E7A7A"/>
</svg>
