<svg width="50" height="90" fill="none" xmlns="http://www.w3.org/2000/svg"><path d="M45.836 31.753c-2.12-.379-12.049-1.232-12.049-1.232s-5.108-9.668-6.169-11.375c-.289-.379-.674-.948-1.253-1.516-.675.19-1.446.284-2.12.379h-.675c-2.988 0-5.59-1.232-7.518-3.223-.482.284-1.157.569-1.446.758-.964.57-4.049 2.844-4.723 10.143-.675 7.393-1.06 20.569-1.06 21.232 0 1.327.963 1.043.963 1.043l.868 17.251L.34 84.835c-.771 1.516-.193 3.507 1.35 4.36 1.638.853 3.566.284 4.53-1.232l11.47-20.19c.29-.474.386-1.043.386-1.612l.289-13.839 7.615 14.882 4.915 20.285c.386 1.706 2.025 2.748 3.76 2.464 1.831-.284 2.988-1.99 2.698-3.791l-3.855-21.138c0-.19-.096-.38-.193-.569L25.98 47.488c.578 0 .867-.284.77-.758V29.668c.29.569 2.218 4.17 2.218 4.17.289.474.867 1.517 1.735 1.612.964.095 11.663.853 13.494.948 2.603.095 3.663-.285 3.76-1.99.192-1.802-.29-2.37-2.121-2.655zM23.667 15.545c4.365 0 7.903-3.48 7.903-7.772C31.57 3.48 28.032 0 23.668 0c-4.366 0-7.904 3.48-7.904 7.773 0 4.292 3.538 7.772 7.904 7.772z" fill="#fff"/><path d="M36.089 15.068l-1.387 13.676 13.906 1.374 1.387-13.676-13.906-1.374z" fill="#fff"/></svg>