<svg width="50" height="90" viewBox="0 0 50 90" fill="none" xmlns="http://www.w3.org/2000/svg">
<path d="M45.8357 31.7532C43.7152 31.374 33.7871 30.521 33.7871 30.521C33.7871 30.521 28.6785 20.8526 27.6182 19.1464C27.329 18.7673 26.9435 18.1985 26.3652 17.6298C25.6904 17.8193 24.9193 17.9142 24.2446 18.0089C24.0518 18.0089 23.7626 18.0089 23.5698 18.0089C20.5818 18.0089 17.9793 16.7767 16.0515 14.7861C15.5696 15.0705 14.8948 15.3549 14.6057 15.5445C13.6418 16.1132 10.5573 18.3881 9.88257 25.6867C9.20785 33.0802 8.82231 46.2558 8.82231 46.9193C8.82231 48.2463 9.78621 47.9619 9.78621 47.9619L10.6537 65.2133L0.340078 84.8345C-0.431036 86.3511 0.147264 88.3416 1.68949 89.1947C3.32811 90.0478 5.2559 89.4791 6.21979 87.9625L17.6901 67.7726C17.9793 67.2987 18.0757 66.7299 18.0757 66.1612L18.3648 52.3222L25.9796 67.2039L30.8954 87.4886C31.281 89.1947 32.9196 90.2374 34.6546 89.953C36.486 89.6687 37.6427 87.9625 37.3535 86.1615L33.4979 65.0238C33.4979 64.8342 33.4015 64.6446 33.3051 64.455L25.9796 47.488C26.5579 47.488 26.8471 47.2036 26.7507 46.7297V29.6679C27.0398 30.2366 28.9676 33.8385 28.9676 33.8385C29.2568 34.3125 29.8352 35.3552 30.7027 35.45C31.6666 35.5447 42.3658 36.303 44.1972 36.3978C46.7997 36.4926 47.8599 36.1134 47.9563 34.4073C48.1491 32.6063 47.6671 32.0376 45.8357 31.7532Z" fill="white"/>
<path d="M23.6666 15.5452C28.0318 15.5452 31.5705 12.0653 31.5705 7.77262C31.5705 3.47993 28.0318 0 23.6666 0C19.3014 0 15.7627 3.47993 15.7627 7.77262C15.7627 12.0653 19.3014 15.5452 23.6666 15.5452Z" fill="white"/>
<path d="M36.0886 15.0681L34.7017 28.7441L48.6077 30.1177L49.9947 16.4417L36.0886 15.0681Z" fill="white"/>
</svg>
