<svg width="144" height="144" viewBox="0 0 144 144" fill="none" xmlns="http://www.w3.org/2000/svg">
<path d="M96.8357 58.7532C94.7152 58.374 84.7871 57.521 84.7871 57.521C84.7871 57.521 79.6785 47.8526 78.6182 46.1464C78.329 45.7673 77.9435 45.1985 77.3652 44.6298C76.6904 44.8193 75.9193 44.9142 75.2446 45.0089C75.0518 45.0089 74.7626 45.0089 74.5698 45.0089C71.5818 45.0089 68.9793 43.7767 67.0515 41.7861C66.5696 42.0705 65.8948 42.3549 65.6057 42.5445C64.6418 43.1132 61.5573 45.3881 60.8826 52.6867C60.2078 60.0802 59.8223 73.2558 59.8223 73.9193C59.8223 75.2463 60.7862 74.9619 60.7862 74.9619L61.6537 92.2133L51.3401 111.834C50.569 113.351 51.1473 115.342 52.6895 116.195C54.3281 117.048 56.2559 116.479 57.2198 114.963L68.6901 94.7726C68.9793 94.2987 69.0757 93.7299 69.0757 93.1612L69.3648 79.3222L76.9796 94.2039L81.8954 114.489C82.281 116.195 83.9196 117.237 85.6546 116.953C87.486 116.669 88.6427 114.962 88.3535 113.162L84.4979 92.0237C84.4979 91.8342 84.4015 91.6446 84.3051 91.455L76.9796 74.488C77.5579 74.488 77.8471 74.2036 77.7507 73.7297V56.6679C78.0398 57.2366 79.9676 60.8385 79.9676 60.8385C80.2568 61.3125 80.8352 62.3552 81.7027 62.45C82.6666 62.5447 93.3658 63.303 95.1972 63.3978C97.7997 63.4926 98.8599 63.1134 98.9563 61.4073C99.1491 59.6063 98.6671 59.0376 96.8357 58.7532Z" fill="white"/>
<path d="M74.6666 42.5452C79.0318 42.5452 82.5705 39.0653 82.5705 34.7726C82.5705 30.4799 79.0318 27 74.6666 27C70.3014 27 66.7627 30.4799 66.7627 34.7726C66.7627 39.0653 70.3014 42.5452 74.6666 42.5452Z" fill="white"/>
<path d="M86.8868 44.0578L85.9035 53.7544C85.792 54.8533 86.5927 55.8322 87.6919 55.9407L97.6175 56.9212C98.7167 57.0297 99.6981 56.2269 99.8095 55.128L100.793 45.4314C100.904 44.3325 100.104 43.3537 99.0044 43.2451L89.0789 42.2647C87.9797 42.1561 86.9983 42.9589 86.8868 44.0578Z" fill="#7E7A7A"/>
<path d="M96.8357 58.7532C94.7152 58.374 84.7871 57.521 84.7871 57.521C84.7871 57.521 79.6785 47.8526 78.6182 46.1464C78.329 45.7673 77.9435 45.1985 77.3652 44.6298C76.6904 44.8193 75.9193 44.9142 75.2446 45.0089C75.0518 45.0089 74.7626 45.0089 74.5698 45.0089C71.5818 45.0089 68.9793 43.7767 67.0515 41.7861C66.5696 42.0705 65.8948 42.3549 65.6057 42.5445C64.6418 43.1132 61.5573 45.3881 60.8826 52.6867C60.2078 60.0802 59.8223 73.2558 59.8223 73.9193C59.8223 75.2463 60.7862 74.9619 60.7862 74.9619L61.6537 92.2133L51.3401 111.834C50.569 113.351 51.1473 115.342 52.6895 116.195C54.3281 117.048 56.2559 116.479 57.2198 114.963L68.6901 94.7726C68.9793 94.2987 69.0757 93.7299 69.0757 93.1612L69.3648 79.3222L76.9796 94.2039L81.8954 114.489C82.281 116.195 83.9196 117.237 85.6546 116.953C87.486 116.669 88.6427 114.962 88.3535 113.162L84.4979 92.0237C84.4979 91.8342 84.4015 91.6446 84.3051 91.455L76.9796 74.488C77.5579 74.488 77.8471 74.2036 77.7507 73.7297V56.6679C78.0398 57.2366 79.9676 60.8385 79.9676 60.8385C80.2568 61.3125 80.8352 62.3552 81.7027 62.45C82.6666 62.5447 93.3658 63.303 95.1972 63.3978C97.7997 63.4926 98.8599 63.1134 98.9563 61.4073C99.1491 59.6063 98.6671 59.0376 96.8357 58.7532Z" fill="white"/>
<path d="M74.6666 42.5452C79.0318 42.5452 82.5705 39.0653 82.5705 34.7726C82.5705 30.4799 79.0318 27 74.6666 27C70.3014 27 66.7627 30.4799 66.7627 34.7726C66.7627 39.0653 70.3014 42.5452 74.6666 42.5452Z" fill="white"/>
<path d="M86.8868 44.0578L85.9035 53.7544C85.792 54.8533 86.5927 55.8322 87.6919 55.9407L97.6175 56.9212C98.7167 57.0297 99.6981 56.2269 99.8095 55.128L100.793 45.4314C100.904 44.3325 100.104 43.3537 99.0044 43.2451L89.0789 42.2647C87.9797 42.1561 86.9983 42.9589 86.8868 44.0578Z" fill="#7E7A7A"/>
</svg>
